<?xml version="1.0" encoding="utf-8"?>
<!-- Generator: Adobe Illustrator 22.1.0, SVG Export Plug-In . SVG Version: 6.00 Build 0)  -->
<svg version="1.1" id="Layer_1" xmlns="http://www.w3.org/2000/svg" xmlns:xlink="http://www.w3.org/1999/xlink" x="0px" y="0px"
	 viewBox="0 0 2009.6 576.7" style="enable-background:new 0 0 2009.6 576.7;" xml:space="preserve">
<style type="text/css">
	.st0{fill:#122347;}
	.st1{fill:#0FA7DD;}
	.st2{fill:none;}
	.st3{fill:#EC2327;}
	.st4{opacity:0.75;}
	.st5{clip-path:url(#SVGID_4_);fill:#F8991D;}
	.st6{fill:#3A245D;}
	.st7{clip-path:url(#SVGID_6_);fill:#75559D;}
	.st8{clip-path:url(#SVGID_8_);fill:#0FA7DD;}
</style>
<g>
	<defs>
		<rect id="SVGID_1_" x="128" y="233.1" width="243" height="343.6"/>
	</defs>
	<clipPath id="SVGID_2_">
		<use xlink:href="#SVGID_1_"  style="overflow:visible;"/>
	</clipPath>
</g>
<g>
	<g>
		<path class="st0" d="M707.6,377c-18.4,20.2-39.5,30.3-63.5,30.3c-13.4,0-25.7-2.9-36.9-8.6c-11.2-5.7-21-13.4-29.2-22.8
			c-8.3-9.5-14.7-20.2-19.3-32.1c-4.6-12-7-24.3-7-36.9c0-13.2,2.3-25.8,6.8-37.9c4.5-12.1,10.9-22.7,19.1-31.9
			c8.2-9.2,17.8-16.5,28.9-22c11.1-5.5,23.3-8.2,36.5-8.2c9.6,0,18.5,1.1,26.4,3.2c8,2.1,15.1,5.1,21.3,8.9
			c6.2,3.8,11.6,8.3,16.1,13.6c4.5,5.3,8.4,11.1,11.5,17.4l-15,10c-6.5-12.2-14.9-21.2-25.3-27c-10.4-5.7-22.2-8.6-35.3-8.6
			c-10.9,0-20.8,2.3-29.6,7c-8.8,4.6-16.3,10.8-22.5,18.5c-6.2,7.7-11,16.5-14.3,26.4c-3.3,9.9-5,20.2-5,30.8
			c0,11.1,1.9,21.7,5.7,31.7c3.8,10,9,18.8,15.7,26.3c6.7,7.5,14.5,13.5,23.5,18c9,4.5,18.8,6.7,29.4,6.7c11.3,0,22.1-2.6,32.4-7.9
			c10.3-5.3,20.2-13.7,29.6-25.2v-32.8h-44v-15H724v97.1h-16.4V377z"/>
		<path class="st0" d="M742.1,405.9V208.3h83.5c8.5,0,16.4,1.8,23.5,5.4c7.1,3.6,13.3,8.3,18.5,14.2c5.2,5.8,9.2,12.5,12.1,19.9
			c2.9,7.4,4.3,14.9,4.3,22.5c0,7.2-1.1,14.2-3.2,20.7c-2.1,6.6-5.1,12.5-8.9,17.8c-3.8,5.3-8.4,9.7-13.8,13.4
			c-5.4,3.6-11.4,6.1-18.1,7.4l48.4,76.3h-22L820,333h-58.4v72.9H742.1z M761.6,315.7h64.6c5.7,0,11-1.3,15.7-3.8
			c4.7-2.5,8.8-5.9,12.1-10.2c3.3-4.3,5.9-9.1,7.8-14.5c1.9-5.4,2.8-11,2.8-17c0-5.9-1.1-11.6-3.2-17.1c-2.1-5.5-5-10.2-8.6-14.3
			c-3.6-4.1-7.9-7.3-12.8-9.7c-4.9-2.4-10.1-3.6-15.4-3.6h-62.9V315.7z"/>
		<path class="st0" d="M981.7,389.8c12.4,0,22.8-2.4,31-7.1c8.3-4.7,14.8-10.9,19.8-18.6c4.9-7.7,8.3-16.5,10.3-26.3
			c1.9-9.8,2.9-19.8,2.9-29.8v-99.6h19.5v99.6c0,13.4-1.5,26-4.5,38c-3,12-7.7,22.5-14.3,31.6c-6.6,9.1-15.2,16.3-25.7,21.7
			c-10.6,5.4-23.5,8.1-38.7,8.1c-15.6,0-28.7-2.8-39.4-8.5c-10.7-5.7-19.3-13.1-25.7-22.4c-6.5-9.3-11.1-19.9-13.9-31.7
			c-2.8-11.9-4.2-24.1-4.2-36.7v-99.6H918v99.6c0,10.4,1,20.5,3.1,30.3c2,9.8,5.5,18.6,10.4,26.2c4.9,7.6,11.5,13.7,19.6,18.4
			C959.3,387.4,969.5,389.8,981.7,389.8z"/>
		<path class="st0" d="M1089.7,405.9V208.3h81.8c8.5,0,16.4,1.8,23.5,5.4c7.1,3.6,13.3,8.3,18.5,14.2c5.2,5.8,9.3,12.5,12.2,19.9
			c3,7.4,4.5,14.9,4.5,22.5c0,8.2-1.4,16-4.2,23.5c-2.8,7.5-6.7,14.1-11.7,19.9c-5,5.8-11,10.4-18,13.9c-7,3.5-14.7,5.3-23.2,5.3
			h-64v72.9H1089.7z M1109.2,315.7h63.2c5.7,0,11-1.3,15.7-3.8c4.7-2.5,8.8-5.8,12.1-10c3.3-4.2,5.9-9,7.8-14.5
			c1.9-5.5,2.8-11.2,2.8-17.1c0-6.1-1.1-11.9-3.2-17.4c-2.1-5.5-5-10.2-8.6-14.3c-3.6-4.1-7.9-7.3-12.8-9.6
			c-4.9-2.3-10.1-3.5-15.4-3.5h-61.5V315.7z"/>
		<path class="st0" d="M1289.3,208.3h16.4l82.1,197.6h-20.6l-25.6-61.8h-88.8l-25.3,61.8h-20.9L1289.3,208.3z M1337.1,328.8
			l-39.8-97.7l-40.4,97.7H1337.1z"/>
	</g>
	<g>
		<path class="st1" d="M1423.7,208.3l38.7,129.4l38.1-129.4h57.1l-72.6,197.6h-45.1l-73.5-197.6H1423.7z"/>
		<path class="st1" d="M1572.6,405.9V208.3h54.3v197.6H1572.6z"/>
		<path class="st1" d="M1780.5,272.9c-5.6-3.3-11.3-6.3-17.3-8.9c-5-2.2-10.6-4.3-16.8-6.3c-6.2-1.9-12.3-2.9-18.2-2.9
			c-4.8,0-8.7,0.7-11.6,2.2c-2.9,1.5-4.3,4-4.3,7.5c0,2.6,0.8,4.7,2.5,6.4c1.7,1.7,4.1,3.2,7.2,4.6c3.2,1.4,7,2.7,11.5,4
			c4.5,1.3,9.7,2.9,15.4,4.7c9.1,2.8,17.3,5.8,24.6,9.2c7.3,3.3,13.6,7.3,18.8,11.8c5.2,4.5,9.2,10.1,12,16.6
			c2.8,6.5,4.2,14.4,4.2,23.7c0,11.9-2.2,21.8-6.5,29.9c-4.4,8.1-10.1,14.5-17.3,19.3c-7.1,4.8-15.2,8.3-24.2,10.4
			c-9,2.1-18,3.2-27.1,3.2c-7.2,0-14.7-0.6-22.3-1.7c-7.6-1.1-15.2-2.7-22.7-4.7c-7.5-2-14.8-4.5-21.7-7.2c-7-2.8-13.4-5.9-19.3-9.5
			l23.4-47.6c6.5,4.1,13.3,7.7,20.3,10.9c5.9,2.8,12.7,5.3,20.2,7.5c7.5,2.2,15.2,3.3,23,3.3c5.9,0,10.1-0.8,12.4-2.4
			c2.3-1.6,3.5-3.7,3.5-6.3c0-2.8-1.2-5.1-3.5-7.1c-2.3-1.9-5.5-3.7-9.6-5.1c-4.1-1.5-8.8-3-14.1-4.5c-5.3-1.5-10.9-3.2-16.8-5.3
			c-8.7-3-16.2-6.2-22.5-9.6c-6.3-3.4-11.5-7.3-15.6-11.7c-4.1-4.4-7.1-9.3-9-14.9c-1.9-5.6-2.9-12-2.9-19.2c0-10.9,2-20.6,6-28.9
			c4-8.3,9.4-15.3,16.3-20.9c6.9-5.6,14.7-9.8,23.5-12.7c8.8-2.9,18.1-4.3,28-4.3c7.2,0,14.3,0.7,21.2,2.1
			c6.9,1.4,13.5,3.2,19.9,5.3c6.4,2.1,12.4,4.5,18,7c5.6,2.5,10.6,4.9,15,7.1L1780.5,272.9z"/>
		<path class="st1" d="M1986.4,255.6h-56.8v150.3h-54.3V255.6h-57.1v-47.3h168.1V255.6z"/>
	</g>
</g>
<rect x="128" y="233.1" class="st2" width="243" height="343.6"/>
<path class="st3" d="M340.8,306c10,4.3,23.9,10.6,40,19.2c34.7,18.3,58.8,35.8,79.2,50.7c19,13.9,42.8,32.5,68.9,56.1
	c-4.9,10.1-10.7,20.8-17.6,31.8c-17.1,27-35.9,47.9-52.6,63.4c-12.3-31-27.1-64.1-44.8-98.7C390,382,365,341.2,340.8,306"/>
<g class="st4">
	<g>
		<defs>
			<rect id="SVGID_3_" x="289.4" y="367" width="239.6" height="160.7"/>
		</defs>
		<clipPath id="SVGID_4_">
			<use xlink:href="#SVGID_3_"  style="overflow:visible;"/>
		</clipPath>
		<path class="st5" d="M289.4,367c0,0,79,99.6,168.5,160.7c0,0,48.5-44.8,71.1-95.3C529,432.4,339.9,392.5,289.4,367"/>
	</g>
</g>
<path class="st6" d="M270.3,365.9c-6,9.1-14.7,21.6-25.9,36c-24.1,30.9-45.6,51.6-63.9,69.1c-17,16.3-39.5,36.4-67.3,58.1
	c-9.1-6.5-18.6-14.1-28.2-22.9c-23.6-21.5-40.8-43.8-53.2-62.9c32.6-6.7,67.8-15.4,105-26.9C186.9,401,231.5,383.5,270.3,365.9"/>
<g class="st4">
	<g>
		<defs>
			<rect id="SVGID_5_" x="31.6" y="304.5" width="187.7" height="224.4"/>
		</defs>
		<clipPath id="SVGID_6_">
			<use xlink:href="#SVGID_5_"  style="overflow:visible;"/>
		</clipPath>
		<path class="st7" d="M219.3,304.5c0,0-111.9,60.3-187.7,137.7c0,0,35.6,55.6,81.3,86.7C112.9,529,185.3,349.8,219.3,304.5"/>
	</g>
</g>
<path class="st0" d="M240.7,277.2c-2.9-10.5-6.6-25.3-9.9-43.2c-7.3-38.6-8.6-68.3-9.7-93.6c-1-23.6-1.3-53.7,0.9-88.9
	c10.9-2.5,22.9-4.6,35.8-6c31.8-3.5,59.8-1.7,82.4,1.6c-16.5,28.9-33.2,61.1-49.2,96.6C269.5,191.4,253.2,236.4,240.7,277.2"/>
<g class="st4">
	<g>
		<defs>
			<rect id="SVGID_7_" x="222.1" y="43.7" width="120.4" height="235.3"/>
		</defs>
		<clipPath id="SVGID_8_">
			<use xlink:href="#SVGID_7_"  style="overflow:visible;"/>
		</clipPath>
		<path class="st8" d="M320.5,279c0,0,28.7-123.9,20.6-231.9c-10.6-1.5-23.9-2.9-39.3-3.3c-17.9-0.5-31.4,0.5-35,0.8
			c-11.9,1-27.2,2.9-44.7,6.9c15.2,28.9,30.2,59.8,44.9,92.6C288.1,191.3,305.7,236.5,320.5,279"/>
	</g>
</g>
</svg>
